<svg fill="none" height="19" viewBox="0 0 19 19" width="19" xmlns="http://www.w3.org/2000/svg" xmlns:xlink="http://www.w3.org/1999/xlink"><clipPath id="a"><rect height="19" rx="4" width="19"/></clipPath><g clip-path="url(#a)"><path d="m14.5044.386129c2.1217.329543 3.7799 1.987731 4.1095 4.109481.5148 3.31476.5148 6.69399 0 10.00879-.3296 2.1217-1.9878 3.7799-4.1095 4.1095-3.3148.5148-6.69403.5148-10.00879 0-2.12175-.3296-3.779939-1.9878-4.109482-4.1095-.514838-3.3148-.514837-6.69402.000001-10.00879.329544-2.12175 1.987731-3.779938 4.109481-4.109481 3.31476-.514839 6.69399-.514839 10.00879 0z" fill="#fff"/><g fill="#000"><path d="m6.3252 13.1123c-1.67481 0-2.70508-1.0498-2.70508-2.7734v-.0049c0-1.71388 1.03515-2.76369 2.69043-2.76369 1.49902 0 2.48535.89844 2.50976 2.16309l.00489.03418h-1.5918l-.00488-.04883c-.06836-.49316-.38086-.83496-.88868-.83496-.60058 0-.96191.53223-.96191 1.45511v.0049c0 .9374.35156 1.455.9668 1.455.50781 0 .81543-.3271.88379-.8349l.00976-.0489h1.58692v.0342c-.03418 1.2354-.9668 2.1631-2.5 2.1631z"/><path d="m9.99414 13v-7.0459h1.73336v2.68555h.0342c.2637-.69336.8154-1.06934 1.6162-1.06934 1.1621 0 1.8457.77149 1.8457 2.05078v3.37891h-1.7334v-3.00781c0-.62989-.3027-1.01074-.874-1.01074-.5469 0-.8887.41992-.8887 1.00585v3.0127z"/></g></g></svg>