<svg fill="none" height="512" viewBox="0 0 512 512" width="512" xmlns="http://www.w3.org/2000/svg" xmlns:xlink="http://www.w3.org/1999/xlink"><clipPath id="a"><rect height="512" rx="107.789" width="512"/></clipPath><g clip-path="url(#a)"><path d="m390.855 10.4052c57.176 8.8803 101.86 53.5641 110.74 110.7398 13.873 89.324 13.873 180.386 0 269.71-8.88 57.176-53.564 101.86-110.74 110.74-89.324 13.874-180.386 13.874-269.71 0-57.1757-8.88-101.8595-53.564-110.7399-110.74-13.87349-89.324-13.87347-180.386.0001-269.71 8.8803-57.1757 53.5641-101.8595 110.7398-110.7398 89.324-13.87359 180.386-13.87359 269.71 0z" fill="#fff"/><g fill="#000"><path d="m170.447 353.342c-45.131 0-72.8943-28.289-72.8943-74.737v-.131c0-46.185 27.8943-74.474 72.5003-74.474 40.394 0 66.973 24.21 67.631 58.289l.132.921h-42.895l-.131-1.315c-1.843-13.29-10.264-22.5-23.948-22.5-16.184 0-25.921 14.342-25.921 39.21v.132c0 25.263 9.474 39.21 26.053 39.21 13.684 0 21.973-8.816 23.816-22.5l.263-1.316h42.763v.922c-.921 33.289-26.053 58.289-67.369 58.289z"/><path d="m269.316 350.316v-189.869h46.71v72.369h.921c7.106-18.685 21.974-28.816 43.553-28.816 31.316 0 49.737 20.789 49.737 55.263v91.053h-46.711v-81.053c0-16.974-8.157-27.237-23.552-27.237-14.737 0-23.948 11.316-23.948 27.105v81.185z"/></g></g></svg>